<?xml version="1.0" encoding="utf-8"?>
<!-- Generator: Adobe Illustrator 16.0.0, SVG Export Plug-In . SVG Version: 6.00 Build 0)  -->
<!DOCTYPE svg PUBLIC "-//W3C//DTD SVG 1.1//EN" "http://www.w3.org/Graphics/SVG/1.1/DTD/svg11.dtd">
<svg version="1.1" id="Layer_1" xmlns="http://www.w3.org/2000/svg" xmlns:xlink="http://www.w3.org/1999/xlink" x="0px" y="0px"
	 width="50px" height="50px" viewBox="0 0 128 128" enable-background="new 0 0 128 128" xml:space="preserve" fill="#fff">
<g>
	<g>
		<g>
			<path fill="#282D33" d="M113.768,108.4h-4V47.361c0-0.711-0.567-1.289-1.265-1.289H92.895v-4h15.608
				c2.903,0,5.265,2.373,5.265,5.289V108.4z"/>
		</g>
		<g>
			<path fill="#282D33" d="M18.231,108.4h-4V47.36c0-2.917,2.361-5.289,5.263-5.289h17.837v4H19.494
				c-0.696,0-1.263,0.578-1.263,1.289V108.4z"/>
		</g>
		<g>
			<polygon fill="#282D33" points="105.664,102.529 92.895,102.529 92.895,98.529 101.664,98.529 101.664,53.85 92.895,53.85 
				92.895,49.85 105.664,49.85 			"/>
		</g>
		<g>
			<polygon fill="#282D33" points="37.331,102.529 22.336,102.529 22.336,49.85 37.331,49.85 37.331,53.85 26.336,53.85 
				26.336,98.529 37.331,98.529 			"/>
		</g>
		<g>
			<path fill="#282D33" d="M118.563,119.227H9.436c-3.711,0-8.146-3.256-8.639-3.627L0,115v-8.904h128V115l-0.798,0.6
				C126.709,115.971,122.273,119.227,118.563,119.227z M4,112.961c1.575,1.039,3.925,2.266,5.436,2.266h109.126
				c1.511,0,3.861-1.225,5.438-2.266v-2.865H4V112.961z"/>
		</g>
	</g>
	<g>
		<g>
			<g>
				<polygon fill="#282D33" points="64.896,106.186 60.897,106.186 60.897,13.111 45.793,13.111 45.793,106.186 41.793,106.186 
					41.793,9.111 64.896,9.111 				"/>
			</g>
			<g>
				<rect x="53.713" y="17.276" fill="#282D33" width="9.184" height="4"/>
			</g>
			<g>
				<rect x="57.952" y="25.441" fill="#282D33" width="4.945" height="4"/>
			</g>
			<g>
				<rect x="53.713" y="33.607" fill="#282D33" width="9.184" height="4"/>
			</g>
			<g>
				<rect x="57.952" y="41.772" fill="#282D33" width="4.945" height="4"/>
			</g>
			<g>
				<rect x="53.713" y="49.938" fill="#282D33" width="9.184" height="4"/>
			</g>
			<g>
				<rect x="57.952" y="58.104" fill="#282D33" width="4.945" height="4"/>
			</g>
			<g>
				<rect x="53.713" y="66.27" fill="#282D33" width="9.184" height="4"/>
			</g>
			<g>
				<rect x="57.952" y="74.436" fill="#282D33" width="4.945" height="4"/>
			</g>
			<g>
				<rect x="53.713" y="82.602" fill="#282D33" width="9.184" height="4"/>
			</g>
			<g>
				<rect x="57.952" y="90.766" fill="#282D33" width="4.945" height="4"/>
			</g>
			<g>
				<rect x="53.713" y="98.932" fill="#282D33" width="9.184" height="4"/>
			</g>
		</g>
		<g>
			<g>
				<polygon fill="#282D33" points="88.134,29.761 84.134,29.761 84.134,27.583 78.523,17.194 72.917,27.583 72.917,29.761 
					68.917,29.761 68.917,26.572 78.523,8.773 88.134,26.572 				"/>
			</g>
			<g>
				<polygon fill="#282D33" points="72.919,106.502 68.919,106.502 68.921,27.974 88.13,27.974 88.13,106.502 84.13,106.502 
					84.13,31.974 72.921,31.974 				"/>
			</g>
			<g>
				<rect x="76.523" y="30.751" fill="#282D33" width="4" height="75.75"/>
			</g>
		</g>
	</g>
</g>
</svg>
