<svg width="80" height="80" fill="none" xmlns="http://www.w3.org/2000/svg">
<circle cx="20" cy="20" r="12" fill="#000"/>
<path d="M26.499 25.5H24.0144V21.6022C24.0144 20.6728 23.9978 19.4763 22.7222 19.4763C21.4281 19.4763 21.2301 20.4889 21.2301 21.5345V25.4997H18.7456V17.4843H21.1307V18.5797H21.1642C21.6498 17.7479 22.5562 17.2492 23.5175 17.285C26.0357 17.285 26.5001 18.9443 26.5001 21.1029L26.499 25.5Z" fill="#656A7B"/>
<path d="M15.9421 16.3887C15.942 16.3887 15.9419 16.3887 15.9418 16.3887C15.1509 16.3887 14.5 15.7367 14.5 14.9444C14.5 14.152 15.1509 13.5 15.9418 13.5C16.7327 13.5 17.3835 14.1519 17.3837 14.9441C17.3837 14.9441 17.3837 14.9442 17.3837 14.9444C17.3837 15.7366 16.733 16.3886 15.9421 16.3887Z" fill="#656A7B"/>
<path d="M17.1844 25.5001H14.6973V17.4844H17.1844V25.5001Z" fill="#656A7B"/>
</svg>
