<svg width="32" height="32" viewBox="0 0 32 32" fill="none" xmlns="http://www.w3.org/2000/svg">
<path d="M22.0142 21.3072L21.3042 22.0172C21.1042 22.2172 20.7942 22.2172 20.5942 22.0172C20.3942 21.8172 20.3942 21.5072 20.5942 21.3072L21.3042 20.5972L19.3642 18.6572L18.6542 19.3672C18.4542 19.5672 18.1442 19.5672 17.9442 19.3672C17.7442 19.1672 17.7442 18.8572 17.9442 18.6572L18.6542 17.9472L16.7142 16.0072L16.0042 16.7172C15.8042 16.9172 15.4942 16.9172 15.2942 16.7172C15.0942 16.5172 15.0942 16.2072 15.2942 16.0072L16.0042 15.2972L14.0542 13.3472L13.3442 14.0572C13.1442 14.2572 12.8342 14.2572 12.6342 14.0572C12.4342 13.8572 12.4342 13.5472 12.6342 13.3472L13.3442 12.6372L11.4042 10.6972L10.6942 11.4072C10.4942 11.6072 10.1842 11.6072 9.98425 11.4072C9.78425 11.2072 9.78425 10.8972 9.98425 10.6972L10.6942 9.98716L9.20425 8.49716C8.89425 8.18716 8.35425 8.40716 8.35425 8.85716V21.6472C8.35425 22.7472 9.25425 23.6472 10.3542 23.6472H23.1442C23.5942 23.6472 23.8142 23.1072 23.4942 22.7972L22.0142 21.3072ZM11.3542 19.6472V14.8872L17.1142 20.6472H12.3542C11.8042 20.6472 11.3542 20.1972 11.3542 19.6472Z" fill="#fff"/>
</svg>
